<svg xmlns="http://www.w3.org/2000/svg" viewBox="0 0 204.5 205"><defs><style>.cls-1{fill:#eec718;}.cls-2{fill:none;stroke:#0a6888;stroke-miterlimit:10;stroke-width:3px;}.cls-3{fill:#0a6888;}.cls-4{fill:#00add5;}.cls-5{fill:#fff1d0;}.cls-6{fill:#dc1f26;}</style></defs><title>home_page_cat_marketing</title><g id="Layer_2" data-name="Layer 2"><g id="Layer_1-2" data-name="Layer 1"><rect class="cls-1" y="5" width="200" height="200" rx="100" ry="100"/><rect class="cls-2" x="3" y="1.5" width="200" height="200" rx="100" ry="100"/><path id="_Compound_Path_" data-name="&lt;Compound Path&gt;" class="cls-3" d="M45.39,106.52l-1.4-.26a17.51,17.51,0,0,1,0-34.44l1.4-.26-.64,1.27a36.15,36.15,0,0,0,0,32.42Zm-2.54-33a16.1,16.1,0,0,0,0,31,37.6,37.6,0,0,1,0-31Z"/><path id="_Path_" data-name="&lt;Path&gt;" class="cls-3" d="M139,55.6a.71.71,0,0,1-.46-1.24L164.08,32.1a.71.71,0,0,1,.93,1.06L139.45,55.43A.7.7,0,0,1,139,55.6Z"/><path id="_Path_2" data-name="&lt;Path&gt;" class="cls-3" d="M141.81,69.86a.71.71,0,0,1-.26-1.36l15.2-6.05a.71.71,0,0,1,.52,1.31l-15.2,6.05A.7.7,0,0,1,141.81,69.86Z"/><path id="_Path_3" data-name="&lt;Path&gt;" class="cls-3" d="M144.1,81.83a.71.71,0,0,1-.05-1.41l32.32-2.51a.71.71,0,1,1,.11,1.41l-32.33,2.51Z"/><path id="_Path_4" data-name="&lt;Path&gt;" class="cls-3" d="M176.42,115.22a.7.7,0,0,1-.21,0l-35.15-10.81a.71.71,0,0,1,.42-1.35l35.15,10.81a.71.71,0,0,1-.21,1.38Z"/><path id="_Path_5" data-name="&lt;Path&gt;" class="cls-3" d="M155.88,95.2h-.06l-11-1a.71.71,0,1,1,.13-1.41l11,1a.71.71,0,0,1-.06,1.41Z"/><path id="_Path_6" data-name="&lt;Path&gt;" class="cls-4" d="M87.41,126.11a36.78,36.78,0,1,1-4.2-70.79Z"/><path id="_Compound_Path_2" data-name="&lt;Compound Path&gt;" class="cls-3" d="M77,126.53a37.49,37.49,0,1,1,0-75,37.63,37.63,0,0,1,7.86.83.71.71,0,0,1,.56.65l4.2,70.79a.71.71,0,0,1-.48.71A37.49,37.49,0,0,1,77,126.53ZM77,53a36.08,36.08,0,1,0,11.17,70.39L84,53.65A36.28,36.28,0,0,0,77,53Z"/><path id="_Path_7" data-name="&lt;Path&gt;" class="cls-5" d="M104.69,176.5h-18a7.6,7.6,0,0,1-7.07-4.81L61.26,125.22a36.94,36.94,0,0,0,26.15.89l23.77,38.82A7.6,7.6,0,0,1,104.69,176.5Z"/><path id="_Compound_Path_3" data-name="&lt;Compound Path&gt;" class="cls-3" d="M106.18,175h-18a8.26,8.26,0,0,1-7.73-5.25L62.09,123.23a.71.71,0,0,1,.93-.91,36.24,36.24,0,0,0,25.65.87.71.71,0,0,1,.83.3l23.77,38.82A8.31,8.31,0,0,1,106.18,175ZM64,124.22l17.78,45a6.86,6.86,0,0,0,6.41,4.36h18a6.9,6.9,0,0,0,5.88-10.5L88.59,124.7A37.68,37.68,0,0,1,64,124.22Z"/><path id="_Path_8" data-name="&lt;Path&gt;" class="cls-5" d="M131,136.5q-1.59.11-3.22.11c-10.26,0-20.66,0-40.34-10.5l-4.2-70.79a45.86,45.86,0,0,1,38-25.82l3.17,34.92,2,21.9Z"/><path id="_Compound_Path_4" data-name="&lt;Compound Path&gt;" class="cls-3" d="M129.24,135.06c-10.24,0-20.83,0-40.67-10.58l-.35-.19,0-.4L84,52.92l.08-.17A47.17,47.17,0,0,1,100.6,34a46.36,46.36,0,0,1,22.1-7.43l.69,0,9.85,108.4-.72.05C131.45,135,130.35,135.06,129.24,135.06ZM89.58,123.42c19.3,10.23,29.65,10.23,39.66,10.23.83,0,1.65,0,2.45-.06L127.2,84.14l-2-21.9L122.1,28a45.44,45.44,0,0,0-36.68,25.2Z"/><path id="_Path_9" data-name="&lt;Path&gt;" class="cls-6" d="M137.49,82.21a11,11,0,0,1-10,10.95l-2-21.9q.48,0,1,0A11,11,0,0,1,137.49,82.21Z"/><path id="_Compound_Path_5" data-name="&lt;Compound Path&gt;" class="cls-3" d="M128.37,91.67l-2.12-23.31.7-.06c.34,0,.68,0,1,0a11.7,11.7,0,0,1,1.09,23.35Zm-.58-22,1.86,20.44A10.29,10.29,0,0,0,128,69.67Z"/></g></g></svg>