<svg xmlns="http://www.w3.org/2000/svg" viewBox="0 0 31.21 31.21"><defs><style>.cls-1{fill:#0a6888;}</style></defs><title>home_page_price</title><g id="Layer_2" data-name="Layer 2"><g id="Layer_1-2" data-name="Layer 1"><path class="cls-1" d="M15.61,31.21A15.61,15.61,0,1,1,31.21,15.61,15.62,15.62,0,0,1,15.61,31.21Zm0-28.63a13,13,0,1,0,13,13A13,13,0,0,0,15.61,2.59Z"/><path class="cls-1" d="M21.2,19.09a4.37,4.37,0,0,1-1.38,3.42,5.52,5.52,0,0,1-3.15,1.33,0,0,0,0,0,0,0v1.1a1,1,0,0,1-1.23,1,1.08,1.08,0,0,1-.84-1.08v-1a0,0,0,0,0,0,0,10.81,10.81,0,0,1-2.14-.4,10.05,10.05,0,0,1-1.9-.76,1,1,0,0,1-.54-.66,1.07,1.07,0,0,1,1.53-1.24,9.88,9.88,0,0,0,1.56.67,7.26,7.26,0,0,0,2.25.35,4.74,4.74,0,0,0,2.78-.71,2.24,2.24,0,0,0,.93-2,2.18,2.18,0,0,0-.83-1.8,4.33,4.33,0,0,0-1.07-.64,14,14,0,0,0-1.49-.55l-1.12-.34a7,7,0,0,1-3.23-1.81,4.09,4.09,0,0,1-1.08-2.84,3.79,3.79,0,0,1,.44-1.85,3.87,3.87,0,0,1,1.15-1.3,5.27,5.27,0,0,1,1.59-.75,7,7,0,0,1,1.16-.24,0,0,0,0,0,0,0V6a1.08,1.08,0,0,1,.84-1.08,1,1,0,0,1,1.23,1V7.08a0,0,0,0,0,0,0,10.21,10.21,0,0,1,1.88.4,10,10,0,0,1,1.68.71,1.08,1.08,0,0,1,.52.66,1.06,1.06,0,0,1-1.52,1.21,8.52,8.52,0,0,0-1.56-.67,7.57,7.57,0,0,0-2.27-.33,5.42,5.42,0,0,0-1.24.14,3,3,0,0,0-1,.39,1.82,1.82,0,0,0-.59.62,1.66,1.66,0,0,0-.21.87A2.09,2.09,0,0,0,13,12.73a5.8,5.8,0,0,0,2.17,1.11l1.24.37a14.06,14.06,0,0,1,1.65.62,6.59,6.59,0,0,1,1.52.95,4.79,4.79,0,0,1,1.13,1.39A4,4,0,0,1,21.2,19.09Z"/><rect class="cls-1" x="14.23" y="4.88" width="2.75" height="21.45" rx="1.36" ry="1.36"/></g></g></svg>