<svg xmlns="http://www.w3.org/2000/svg" viewBox="0 0 14.14 13.52"><defs><style>.cls-1{fill:#eec718;}.cls-2{fill:#0a6888;}</style></defs><title>course-page-starsmall</title><g id="Layer_2" data-name="Layer 2"><g id="Layer_1-2" data-name="Layer 1"><polygon class="cls-1" points="4.07 12.91 4.01 8.65 1.2 5.44 5.24 4.07 7.42 0.4 9.97 3.82 14.13 4.76 11.67 8.25 12.06 12.5 7.99 11.23 4.07 12.91"/><path class="cls-2" d="M6.72,0,9.48,3.69l4.5,1L11.31,8.47l.42,4.59L7.33,11.7,3.1,13.52,3,8.91,0,5.44,4.36,4ZM11,12.21l-.36-3.91L13,5.1,9.13,4.24,6.78,1.09l-2,3.37L1.05,5.72l2.59,3,.05,3.92L7.3,11.05Z"/></g></g></svg>