<svg xmlns="http://www.w3.org/2000/svg" viewBox="0 0 35.65 35.65"><defs><style>.cls-1{fill:#0a6888;}</style></defs><title>course-page-linkedin</title><g id="Layer_2" data-name="Layer 2"><g id="Layer_1-2" data-name="Layer 1"><path id="_Compound_Path_" data-name="&lt;Compound Path&gt;" class="cls-1" d="M17.83,0A17.83,17.83,0,1,0,35.65,17.83,17.83,17.83,0,0,0,17.83,0ZM12.65,16.09V27.26H7.72V13.18h4.93Zm-2.46-5a2.46,2.46,0,1,1,2.46-2.46A2.46,2.46,0,0,1,10.19,11.07Zm18.65,8.45v7.74H24.61V20.4c0-1.64-.18-3.74-2.42-3.74s-2.62,1.78-2.62,3.62v7h-4.1V13.18h3.92v1.9h.06c.58-1.11,2-1.9,4.14-1.9,3.59,0,4.81,1.67,5.14,4.32a16.37,16.37,0,0,1,.11,2Z"/></g></g></svg>