<svg xmlns="http://www.w3.org/2000/svg" viewBox="0 0 30 26.94"><defs><style>.cls-1{fill:#dc1f26;}</style></defs><title>home_page_unliked</title><g id="Layer_2" data-name="Layer 2"><g id="Layer_1-2" data-name="Layer 1"><path class="cls-1" d="M14.83,26.94l-.32-.17C-1.36,18.42-.1,9.61.11,8.56A8.63,8.63,0,0,1,15,2.71,8.63,8.63,0,0,1,29.93,8.57c.17,1,1.16,9.82-14.77,18.19ZM8.75,1.39A7.25,7.25,0,0,0,1.5,8.64v.09l0,.08c0,.08-1.8,8.46,13.35,16.55C30.1,17.21,28.57,8.86,28.55,8.78V8.64a7.24,7.24,0,0,0-13-4.44L15,4.91l-.55-.71A7.2,7.2,0,0,0,8.75,1.39Z"/></g></g></svg>