<svg xmlns="http://www.w3.org/2000/svg" viewBox="0 0 204.5 204.5"><defs><style>.cls-1{fill:#eec718;}.cls-2{fill:none;stroke:#0a6888;stroke-miterlimit:10;stroke-width:3px;}.cls-3{fill:#00add5;}.cls-4{fill:#0a6888;}.cls-5{fill:#fff1d0;}</style></defs><title>home_page_cat_business</title><g id="Layer_2" data-name="Layer 2"><g id="Layer_1-2" data-name="Layer 1"><rect class="cls-1" y="4.5" width="200" height="200" rx="100" ry="100"/><rect class="cls-2" x="3" y="1.5" width="200" height="200" rx="100" ry="100"/><g id="_Group_" data-name="&lt;Group&gt;"><circle id="_Ellipse_" data-name="&lt;Ellipse&gt;" class="cls-3" cx="98.31" cy="106.19" r="73.31"/><circle id="_Ellipse_2" data-name="&lt;Ellipse&gt;" class="cls-1" cx="98.31" cy="106.19" r="63.71"/><path id="_Compound_Path_" data-name="&lt;Compound Path&gt;" class="cls-4" d="M100.83,168.23a64.57,64.57,0,1,1,45.65-18.91A64.14,64.14,0,0,1,100.83,168.23Zm0-127.42a62.86,62.86,0,1,0,62.86,62.86A62.93,62.93,0,0,0,100.83,40.81Z"/><path id="_Compound_Path_2" data-name="&lt;Compound Path&gt;" class="cls-4" d="M100.83,177.83a74.17,74.17,0,1,1,52.44-21.72A73.68,73.68,0,0,1,100.83,177.83Zm0-146.63a72.46,72.46,0,1,0,72.46,72.46A72.54,72.54,0,0,0,100.83,31.21Z"/><g id="_Group_2" data-name="&lt;Group&gt;"><path id="_Compound_Path_3" data-name="&lt;Compound Path&gt;" class="cls-5" d="M96.81,64.61h1.12q2.8,0,3.64,3.2v5.6q5.21.31,11.71,4.9,2.41,1.88,2.41,2.89v1q0,2.19-4.14,2.71-1.68,0-5.38-3.2a14.29,14.29,0,0,0-4.59-1.88V100q9.91,2.85,14.11,9a16.32,16.32,0,0,1,3.25,9.11q0,12.17-16,17.64l-1.34.17v5.56q-1,3.24-4.09,3.24-4.31-.7-4.31-3.24v-4.55q0-.26-5-.83-9.69-2.58-13.89-8l-.22-1a3.81,3.81,0,0,1,4.14-3.24q2.24,0,6,3.72a22.52,22.52,0,0,0,8.91,2.71V104.93Q85.78,103.14,83,100q-5.66-4.55-5.66-10.46V88.3q0-8.27,10.87-13.35a17.22,17.22,0,0,1,5-1.36V67.46Q94.29,64.61,96.81,64.61ZM85.56,89.17v1.36q0,5.43,7.62,8.67V81.07Q85.56,84,85.56,89.17Zm16,18.48V130h.22q8.68-4,8.68-10.16v-1.71Q110.48,111.9,101.57,107.65Z"/></g><g id="_Group_3" data-name="&lt;Group&gt;"><path id="_Compound_Path_4" data-name="&lt;Compound Path&gt;" class="cls-4" d="M99.29,144.43h-.11c-3.25-.53-4.9-1.85-4.9-3.93v-4.08c-.48-.1-1.63-.3-4.36-.61l-.1,0c-6.58-1.75-11.38-4.52-14.26-8.22l-.1-.12-.29-1.32,0-.15A4.51,4.51,0,0,1,80,122.18c1.68,0,3.8,1.26,6.46,3.85a22.85,22.85,0,0,0,7.79,2.53V104.48c-4.73-1.21-8.08-2.88-10-5-3.9-3.15-5.87-6.84-5.87-11V87.29c0-5.79,3.79-10.49,11.27-14l0,0a23.34,23.34,0,0,1,4.53-1.35V66.32l0-.12c1.07-2.72,2.93-3.29,4.29-3.29h1.12c1.52,0,3.51.65,4.32,3.72l0,.09v5c3.42.37,7.26,2,11.41,5l0,0c1.85,1.45,2.68,2.51,2.68,3.44v1c0,1.86-1.6,3-4.76,3.41h-.09c-1.32,0-3.16-1.06-5.8-3.34a12.86,12.86,0,0,0-3.46-1.53v18.7c6.48,1.95,11.18,5,14,9.15a17.08,17.08,0,0,1,3.37,9.5c0,8.41-5.55,14.57-16.49,18.31l-.07,0-.8.1v5l0,.1A4.74,4.74,0,0,1,99.29,144.43Zm-9.17-10c1.64.19,2.89.35,3.72.49,1.06.18,1.83.31,1.83,1v4.55c0,.48,0,1.93,3.67,2.54a3.3,3.3,0,0,0,3.33-2.65v-6.07l1.89-.25c10.41-3.57,15.48-9.12,15.48-17a15.72,15.72,0,0,0-3.13-8.71c-2.69-4-7.31-6.9-13.73-8.74l-.51-.15V78l.87.21a15,15,0,0,1,4.82,2l.07.05c3,2.57,4.32,3,4.88,3,2.31-.3,3.48-1,3.48-2v-1c0-.07-.06-.71-2.13-2.33-4.2-3-8-4.57-11.33-4.77l-.66,0V66.9c-.49-1.76-1.42-2.59-2.94-2.59H98.62c-1.36,0-2.29.73-2.94,2.28v6.7H95a15.87,15.87,0,0,0-4.71,1.3c-6.92,3.24-10.44,7.52-10.44,12.7v1.23c0,3.7,1.82,7,5.39,9.92l.08.08c1.76,2,5.07,3.57,9.83,4.73l.54.13v26.69l-.74,0a23.31,23.31,0,0,1-9.19-2.79l-.09,0-.08-.07c-3-2.91-4.67-3.52-5.56-3.52a3.1,3.1,0,0,0-3.42,2.54l.15.69C79.45,130.2,83.95,132.76,90.13,134.41Zm13.63-4.69h-1.08V105.53l1,.48c6.17,2.95,9.31,6.69,9.31,11.14v1.71c0,4.4-3.06,8-9.09,10.8Zm.33-21.94V128c5-2.46,7.5-5.54,7.5-9.15v-1.71C111.58,113.53,109.06,110.38,104.08,107.78Zm-8.4-8.52-1-.42c-5.34-2.27-8-5.4-8-9.32V88.17c0-3.75,2.71-6.69,8.07-8.76l1-.37ZM94.28,81.11c-4.18,1.8-6.21,4.12-6.21,7.05v1.36c0,3.11,2,5.59,6.21,7.58Z"/></g></g></g></g></svg>