<svg xmlns="http://www.w3.org/2000/svg" viewBox="0 0 204 205"><defs><style>.cls-1{fill:#eec718;}.cls-2{fill:none;stroke:#0a6888;stroke-miterlimit:10;stroke-width:3px;}.cls-3{fill:#00add5;}.cls-4{fill:#0a6888;}.cls-5{fill:#fff1d0;}</style></defs><title>home_page_cat_software</title><g id="Layer_2" data-name="Layer 2"><g id="Layer_1-2" data-name="Layer 1"><rect class="cls-1" y="5" width="200" height="200" rx="100" ry="100"/><rect class="cls-2" x="2.5" y="1.5" width="200" height="200" rx="100" ry="100"/><g id="_Group_" data-name="&lt;Group&gt;"><rect id="_Rectangle_" data-name="&lt;Rectangle&gt;" class="cls-3" x="88.21" y="101.88" width="23.18" height="59.36" rx="5.75" ry="5.75"/><path id="_Compound_Path_" data-name="&lt;Compound Path&gt;" class="cls-4" d="M111.52,161H91.3a2.38,2.38,0,0,1-2.38-2.38v-56.4a2.38,2.38,0,0,1,2.38-2.38h20.22a2.38,2.38,0,0,1,2.38,2.38v56.4A2.38,2.38,0,0,1,111.52,161ZM91.3,101.69a.58.58,0,0,0-.58.58v56.4a.58.58,0,0,0,.58.58h20.22a.58.58,0,0,0,.58-.58v-56.4a.58.58,0,0,0-.58-.58Z"/><rect id="_Rectangle_2" data-name="&lt;Rectangle&gt;" class="cls-3" x="54.22" y="157.32" width="91.16" height="6.18" rx="3.09" ry="3.09"/><path id="_Compound_Path_2" data-name="&lt;Compound Path&gt;" class="cls-4" d="M143.9,163.3h-85a4,4,0,0,1,0-8h85a4,4,0,0,1,0,8Zm-85-6.18a2.19,2.19,0,0,0,0,4.38h85a2.19,2.19,0,0,0,0-4.38Z"/><g id="_Group_2" data-name="&lt;Group&gt;"><rect id="_Rectangle_3" data-name="&lt;Rectangle&gt;" class="cls-3" x="37.86" y="40.56" width="123.88" height="101.24" rx="4.76" ry="4.76"/><rect id="_Rectangle_4" data-name="&lt;Rectangle&gt;" class="cls-5" x="40.43" y="45.28" width="118.74" height="81.94" rx="4.61" ry="4.61"/></g><g id="_Group_3" data-name="&lt;Group&gt;"><path id="_Compound_Path_3" data-name="&lt;Compound Path&gt;" class="cls-4" d="M158.07,128.86H44.75c-1.93,0-3.5-2.11-3.5-4.71V48c0-2.6,1.57-4.71,3.5-4.71H158.07c1.93,0,3.5,2.11,3.5,4.71v76.12C161.57,126.74,160,128.86,158.07,128.86ZM44.75,45.45c-1.06,0-1.92,1.16-1.92,2.58v76.12c0,1.42.86,2.58,1.92,2.58H158.07c1.06,0,1.92-1.16,1.92-2.58V48c0-1.42-.86-2.58-1.92-2.58Z"/><path id="_Compound_Path_4" data-name="&lt;Compound Path&gt;" class="cls-4" d="M160.64,144.3H42.18c-1.93,0-3.5-2.49-3.5-5.56V44.06c0-3.07,1.57-5.56,3.5-5.56H160.64c1.93,0,3.5,2.49,3.5,5.56v94.68C164.14,141.81,162.57,144.3,160.64,144.3ZM42.18,41c-1.06,0-1.92,1.37-1.92,3v94.68c0,1.68.86,3,1.92,3H160.64c1.06,0,1.92-1.37,1.92-3V44.06c0-1.68-.86-3-1.92-3Z"/></g><path id="_Path_" data-name="&lt;Path&gt;" class="cls-4" d="M94.25,108.16a1.11,1.11,0,0,1-.67-.22L67.13,87.59a.69.69,0,0,1-.29-.53.68.68,0,0,1,.27-.54L93,65.75a1.15,1.15,0,0,1,1.36,0,.65.65,0,0,1,0,1.07L69.16,87l25.75,19.82a.65.65,0,0,1,0,1.07A1.1,1.1,0,0,1,94.25,108.16Z"/><path id="_Path_2" data-name="&lt;Path&gt;" class="cls-4" d="M112.77,108.16a1.1,1.1,0,0,1-.69-.23.65.65,0,0,1,0-1.07L137.86,87,112.63,66.8a.65.65,0,0,1,0-1.07,1.15,1.15,0,0,1,1.36,0l25.9,20.78a.68.68,0,0,1,.27.54.69.69,0,0,1-.29.53l-26.44,20.35A1.11,1.11,0,0,1,112.77,108.16Z"/></g></g></g></svg>