<svg xmlns="http://www.w3.org/2000/svg" viewBox="0 0 30 27.56"><defs><style>.cls-1{fill:#dc1f26;}.cls-2{fill:#0a6888;}</style></defs><title>home_page_liked</title><g id="Layer_2" data-name="Layer 2"><g id="Layer_1-2" data-name="Layer 1"><path class="cls-1" d="M28.49,10.07A7.93,7.93,0,0,0,14.3,5.21,7.93,7.93,0,0,0,.1,10.07s-2.23,9,14,17.49C30.35,19,28.49,10.07,28.49,10.07Z"/><path class="cls-2" d="M14.85,26.9l-.32-.17C-1.32,18.4-.06,9.6.15,8.55A8.62,8.62,0,0,1,15,2.7,8.62,8.62,0,0,1,29.93,8.56c.17,1,1.16,9.81-14.75,18.17ZM8.78,1.39A7.25,7.25,0,0,0,1.54,8.63v.09l0,.08c0,.08-1.79,8.45,13.33,16.53C30.1,17.19,28.57,8.85,28.55,8.77V8.63a7.23,7.23,0,0,0-13-4.43L15,4.9l-.55-.71A7.19,7.19,0,0,0,8.78,1.39Z"/></g></g></svg>