<svg xmlns="http://www.w3.org/2000/svg" viewBox="0 0 13.63 7.48"><defs><style>.cls-1{fill:#0a6888;}</style></defs><title>home_page_more</title><g id="Layer_2" data-name="Layer 2"><g id="Layer_1-2" data-name="Layer 1"><path class="cls-1" d="M11.13,3.74,13.38,6a.87.87,0,0,1,0,1.23h0a.87.87,0,0,1-1.23,0L9.24,4.32a.82.82,0,0,1,0-1.16L12.15.26a.87.87,0,0,1,1.23,0h0a.87.87,0,0,1,0,1.23Z"/><path class="cls-1" d="M2.13,3.74,4.38,6a.87.87,0,0,1,0,1.23h0a.87.87,0,0,1-1.23,0L.24,4.32a.82.82,0,0,1,0-1.16L3.15.26a.87.87,0,0,1,1.23,0h0a.87.87,0,0,1,0,1.23Z"/><path class="cls-1" d="M6.59,3.74,8.84,6a.87.87,0,0,1,0,1.23h0a.87.87,0,0,1-1.23,0L4.7,4.32a.82.82,0,0,1,0-1.16L7.61.26a.87.87,0,0,1,1.23,0h0a.87.87,0,0,1,0,1.23Z"/></g></g></svg>