<svg xmlns="http://www.w3.org/2000/svg" viewBox="0 0 39.26 36.07"><defs><style>.cls-1{fill:#dc1f26;}.cls-2{fill:#0a6888;}</style></defs><title>course-page-liked</title><g id="Layer_2" data-name="Layer 2"><g id="Layer_1-2" data-name="Layer 1"><path class="cls-1" d="M37.29,13.18A10.37,10.37,0,0,0,18.71,6.82,10.37,10.37,0,0,0,.14,13.18S-2.78,24.9,18.47,36.07C39.72,24.9,37.29,13.18,37.29,13.18Z"/><path class="cls-2" d="M19.44,35.21,19,35C-1.73,24.08-.08,12.56.2,11.19A11.28,11.28,0,0,1,19.68,3.54a11.28,11.28,0,0,1,19.49,7.67C39.39,12.49,40.68,24,19.86,35Zm-8-33.39A9.48,9.48,0,0,0,2,11.29v.11l0,.11c0,.11-2.35,11.06,17.45,21.64,20-10.66,18-21.56,17.93-21.67l0-.18A9.46,9.46,0,0,0,20.4,5.49l-.72.93L19,5.49A9.41,9.41,0,0,0,11.49,1.82Z"/></g></g></svg>