<svg xmlns="http://www.w3.org/2000/svg" viewBox="0 0 35.65 35.65"><defs><style>.cls-1{fill:#0a6888;}</style></defs><title>course-page-twitter</title><g id="Layer_2" data-name="Layer 2"><g id="Layer_1-2" data-name="Layer 1"><path class="cls-1" d="M17.83,0A17.83,17.83,0,1,0,35.65,17.83,17.83,17.83,0,0,0,17.83,0Zm8.4,14.6c0,.18,0,.37,0,.55a11.57,11.57,0,0,1-.29,2.57,12.05,12.05,0,0,1-12,9.56,12.42,12.42,0,0,1-6.64-1.91,9.41,9.41,0,0,0,1,.06,8.73,8.73,0,0,0,5.38-1.83,4.32,4.32,0,0,1-4-3,4.9,4.9,0,0,0,.82.08,4.34,4.34,0,0,0,1.14-.15,4.32,4.32,0,0,1-3.18-2.64,4.18,4.18,0,0,1-.29-1.54v-.05a4.38,4.38,0,0,0,2,.54,4.27,4.27,0,0,1-1.93-3.55,4.21,4.21,0,0,1,.59-2.14,12.36,12.36,0,0,0,8.92,4.45,4.54,4.54,0,0,1-.11-1,4.29,4.29,0,0,1,4.33-4.26A4.34,4.34,0,0,1,25,11.74a8.94,8.94,0,0,0,2.75-1,4.27,4.27,0,0,1-1.91,2.36,8.77,8.77,0,0,0,2.49-.67A8.8,8.8,0,0,1,26.23,14.6Z"/></g></g></svg>