<svg xmlns="http://www.w3.org/2000/svg" viewBox="0 0 33.75 33.75"><defs><style>.cls-1{fill:#0a6888;}</style></defs><title>course-page-price</title><g id="Layer_2" data-name="Layer 2"><g id="Layer_1-2" data-name="Layer 1"><path class="cls-1" d="M16.88,33.75A16.87,16.87,0,1,1,33.75,16.87,16.89,16.89,0,0,1,16.88,33.75Zm0-31A14.08,14.08,0,1,0,31,16.87,14.09,14.09,0,0,0,16.88,2.8Z"/><path class="cls-1" d="M22.92,20.64a4.72,4.72,0,0,1-1.49,3.69A6,6,0,0,1,18,25.76a0,0,0,0,0,0,0V27a1.12,1.12,0,0,1-1.33,1.1,1.17,1.17,0,0,1-.91-1.17v-1a0,0,0,0,0,0,0,11.68,11.68,0,0,1-2.31-.43,10.87,10.87,0,0,1-2.05-.82,1.13,1.13,0,0,1-.58-.71,1.16,1.16,0,0,1,1.66-1.34,10.69,10.69,0,0,0,1.69.73,7.85,7.85,0,0,0,2.43.38,5.12,5.12,0,0,0,3-.77,2.42,2.42,0,0,0,1-2.11,2.36,2.36,0,0,0-.9-2,4.68,4.68,0,0,0-1.16-.69,15.18,15.18,0,0,0-1.61-.6l-1.22-.37a7.56,7.56,0,0,1-3.49-2A4.42,4.42,0,0,1,11,12.13a4.1,4.1,0,0,1,.48-2,4.19,4.19,0,0,1,1.25-1.41,5.7,5.7,0,0,1,1.72-.81,7.58,7.58,0,0,1,1.25-.26,0,0,0,0,0,0,0V6.47a1.17,1.17,0,0,1,.91-1.17A1.12,1.12,0,0,1,18,6.4V7.66a0,0,0,0,0,0,0,11,11,0,0,1,2,.44,10.78,10.78,0,0,1,1.81.76,1.16,1.16,0,0,1,.57.71,1.14,1.14,0,0,1-1.64,1.31,9.22,9.22,0,0,0-1.69-.72,8.19,8.19,0,0,0-2.45-.36A5.86,5.86,0,0,0,15.3,10a3.24,3.24,0,0,0-1,.42,2,2,0,0,0-.64.67,1.79,1.79,0,0,0-.23.94,2.26,2.26,0,0,0,.7,1.75A6.27,6.27,0,0,0,16.44,15l1.34.4a15.2,15.2,0,0,1,1.79.67,7.13,7.13,0,0,1,1.65,1,5.18,5.18,0,0,1,1.23,1.5A4.32,4.32,0,0,1,22.92,20.64Z"/><rect class="cls-1" x="15.39" y="5.28" width="2.98" height="23.19" rx="1.49" ry="1.49"/></g></g></svg>