<svg xmlns="http://www.w3.org/2000/svg" viewBox="0 0 204.5 204.5"><defs><style>.cls-1{fill:#eec718;}.cls-2{fill:none;stroke:#0a6888;stroke-miterlimit:10;stroke-width:3px;}.cls-3{fill:#00add5;}.cls-4{fill:#fff1d0;}.cls-5{fill:#dc1f26;}.cls-6{fill:#0a6888;}</style></defs><title>home_page_cat_design</title><g id="Layer_2" data-name="Layer 2"><g id="Layer_1-2" data-name="Layer 1"><rect class="cls-1" y="4.5" width="200" height="200" rx="100" ry="100"/><rect class="cls-2" x="3" y="1.5" width="200" height="200" rx="100" ry="100"/><path id="_Compound_Path_" data-name="&lt;Compound Path&gt;" class="cls-3" d="M76.56,163.1,32.26,116.7a6.67,6.67,0,1,1,10-8.82l0,0L83,157.45Z"/><g id="_Group_" data-name="&lt;Group&gt;"><path id="_Compound_Path_2" data-name="&lt;Compound Path&gt;" class="cls-3" d="M130.24,150.58a22.36,22.36,0,0,1-4.43-.45,22.21,22.21,0,0,1-9.9-38.77,1.37,1.37,0,0,1,.26-.17,9.53,9.53,0,0,0,2.37-1.7,9.37,9.37,0,0,0,2.62-4.77h0a9.37,9.37,0,0,0-1.34-7.12,9.56,9.56,0,0,0-15.69-.43,9.34,9.34,0,0,0-1.6,3.6c0,.17-.07.35-.1.52a1.35,1.35,0,0,1-.14.42A30.14,30.14,0,0,1,45.52,89.86v-.18A64,64,0,0,1,46.81,80c.2-1,.43-1.93.69-2.91a63.37,63.37,0,1,1,96.09,69c-1.24.81-2.52,1.59-3.81,2.32l-.08,0A22,22,0,0,1,130.24,150.58ZM100.44,101h0Z"/></g><g id="_Group_2" data-name="&lt;Group&gt;"><g id="_Group_3" data-name="&lt;Group&gt;"><path id="_Compound_Path_3" data-name="&lt;Compound Path&gt;" class="cls-4" d="M138.14,128.66a6.7,6.7,0,1,1,6.7-6.7A6.71,6.71,0,0,1,138.14,128.66Z"/></g></g><g id="_Group_4" data-name="&lt;Group&gt;"><g id="_Group_5" data-name="&lt;Group&gt;"><path id="_Compound_Path_4" data-name="&lt;Compound Path&gt;" class="cls-5" d="M139.54,82.86A10.49,10.49,0,1,1,150,72.37,10.51,10.51,0,0,1,139.54,82.86Z"/></g></g><g id="_Group_6" data-name="&lt;Group&gt;"><g id="_Group_7" data-name="&lt;Group&gt;"><path id="_Compound_Path_5" data-name="&lt;Compound Path&gt;" class="cls-1" d="M84.06,93.45a19.22,19.22,0,1,1,13.59-5.63A19.09,19.09,0,0,1,84.06,93.45Z"/></g></g><g id="_Group_8" data-name="&lt;Group&gt;"><path id="_Compound_Path_6" data-name="&lt;Compound Path&gt;" class="cls-6" d="M131.46,148.36a22.36,22.36,0,0,1-4.43-.45,22.21,22.21,0,0,1-9.9-38.77,1.37,1.37,0,0,1,.26-.17,9.53,9.53,0,0,0,2.37-1.7,9.37,9.37,0,0,0,2.62-4.77h0A9.37,9.37,0,0,0,121,95.38a9.56,9.56,0,0,0-15.69-.43,9.34,9.34,0,0,0-1.6,3.6c0,.17-.07.35-.1.52a1.35,1.35,0,0,1-.14.42A30.14,30.14,0,0,1,46.74,87.64v-.18A64,64,0,0,1,48,77.75c.2-1,.43-1.93.69-2.91a63.37,63.37,0,1,1,96.09,69c-1.24.81-2.52,1.59-3.81,2.32l-.08,0A22,22,0,0,1,131.46,148.36Zm-13.1-37.63A20.2,20.2,0,0,0,140,144.4c1.22-.68,2.46-1.44,3.66-2.23a61.36,61.36,0,1,0-93-66.83c-.25.95-.47,1.9-.67,2.82a62.08,62.08,0,0,0-1.25,9.37,28.13,28.13,0,0,0,52.93,11.12c0-.18.06-.35.1-.53a11.34,11.34,0,0,1,1.95-4.37,11.57,11.57,0,0,1,19,.51,11.37,11.37,0,0,1,1.63,8.64h0a11.38,11.38,0,0,1-3.18,5.79A11.54,11.54,0,0,1,118.36,110.73Zm-16.71-12h0Z"/></g><g id="_Group_9" data-name="&lt;Group&gt;"><g id="_Group_10" data-name="&lt;Group&gt;"><path id="_Compound_Path_7" data-name="&lt;Compound Path&gt;" class="cls-6" d="M139.36,126.44a6.7,6.7,0,1,1,6.7-6.7A6.71,6.71,0,0,1,139.36,126.44Zm0-11.4a4.69,4.69,0,1,0,4.69,4.69A4.7,4.7,0,0,0,139.36,115Z"/></g></g><g id="_Group_11" data-name="&lt;Group&gt;"><g id="_Group_12" data-name="&lt;Group&gt;"><path id="_Compound_Path_8" data-name="&lt;Compound Path&gt;" class="cls-6" d="M140.76,80.64a10.49,10.49,0,1,1,10.49-10.49A10.51,10.51,0,0,1,140.76,80.64Zm0-19a8.48,8.48,0,1,0,8.48,8.48A8.49,8.49,0,0,0,140.76,61.66Z"/></g></g><g id="_Group_13" data-name="&lt;Group&gt;"><g id="_Group_14" data-name="&lt;Group&gt;"><path id="_Compound_Path_9" data-name="&lt;Compound Path&gt;" class="cls-6" d="M85.28,91.23A19.22,19.22,0,1,1,98.87,85.6,19.09,19.09,0,0,1,85.28,91.23Zm0-36.43a17.21,17.21,0,1,0,12.17,5A17.1,17.1,0,0,0,85.28,54.8Z"/></g></g><path id="_Compound_Path_10" data-name="&lt;Compound Path&gt;" class="cls-1" d="M88.76,176.5a17,17,0,0,1-2.88-.24,9.39,9.39,0,0,1-6.34-3.58c-1.94-2.84-1.47-8.32-1.45-8.55l0-.4,4.77-4.17.3,0A8.87,8.87,0,0,1,93,166.75a3.05,3.05,0,0,0,1.38,2.15c2.31,1.52,6.88.86,8.44.48l4.91-1.2-4.08,3A26.1,26.1,0,0,1,88.76,176.5Z"/><path id="_Compound_Path_11" data-name="&lt;Compound Path&gt;" class="cls-6" d="M89.77,175a17,17,0,0,1-2.88-.24,9.39,9.39,0,0,1-6.34-3.58c-1.94-2.84-1.47-8.32-1.45-8.55l0-.4L83.91,158l.3,0a8.87,8.87,0,0,1,9.84,7.24,3.05,3.05,0,0,0,1.38,2.15c2.31,1.52,6.88.86,8.44.48l4.91-1.2-4.08,3A26.1,26.1,0,0,1,89.77,175Zm-8.69-11.8c-.09,1.64,0,5.14,1.14,6.85a7.44,7.44,0,0,0,5,2.73c3.75.65,8.29-.27,12.52-2.42h0a10,10,0,0,1-5.38-1.28,5,5,0,0,1-2.26-3.49,6.84,6.84,0,0,0-7.3-5.62Z"/><path id="_Compound_Path_12" data-name="&lt;Compound Path&gt;" class="cls-6" d="M77.57,161.59l-44.3-46.41a6.67,6.67,0,1,1,10-8.82l0,0L84,155.93ZM38.25,106.1a4.66,4.66,0,0,0-3.49,7.72l42.94,45,3.54-3.1-39.49-48a4.62,4.62,0,0,0-3.19-1.56Z"/></g></g></svg>