<svg xmlns="http://www.w3.org/2000/svg" viewBox="0 0 42.43 40.56"><defs><style>.cls-1{fill:#eec718;}.cls-2{fill:#0a6888;}</style></defs><title>course-page-reviewed</title><g id="Layer_2" data-name="Layer 2"><g id="Layer_1-2" data-name="Layer 1"><polygon class="cls-1" points="12.21 38.76 12.04 25.96 3.6 16.33 15.73 12.21 22.27 1.21 29.93 11.47 42.42 14.3 35.03 24.75 36.2 37.51 23.98 33.71 12.21 38.76"/><path class="cls-2" d="M20.17,0l8.27,11.09,13.49,3.05-8,11.3,1.27,13.78L22,35.1,9.3,40.56,9.12,26.73,0,16.33l13.1-4.44Zm13,36.66L32.08,24.93l6.8-9.62-11.49-2.6-7-9.44-6,10.12L3.17,17.18,10.93,26l.15,11.78,10.82-4.65Z"/></g></g></svg>